<?xml version="1.0" encoding="UTF-8"?>
<svg width="48px" height="30px" viewBox="0 0 48 30" version="1.1" xmlns="http://www.w3.org/2000/svg" xmlns:xlink="http://www.w3.org/1999/xlink">
    <!-- Generator: Sketch 57.1 (83088) - https://sketch.com -->
    <title>Behance</title>
    <desc>Created with Sketch.</desc>
    <g id="Page-1" stroke="none" stroke-width="1" fill="none" fill-rule="evenodd" opacity="0.35">
        <g id="Artboard" transform="translate(-125.000000, -964.000000)" fill="#000000" fill-rule="nonzero">
            <g id="Group" transform="translate(125.000000, 955.000000)">
                <g id="34364" transform="translate(0.000000, 9.000000)">
                    <path d="M43.3474426,4.24537608 L31.320411,4.24537608 L31.320411,1.24459141 L43.348447,1.24459141 L43.348447,4.24537608 L43.3474426,4.24537608 L43.3474426,4.24537608 Z M23.3137356,16.5506109 C24.0897739,17.7579868 24.4775698,19.2239659 24.4775698,20.9450734 C24.4775698,22.7249187 24.0403369,24.3216007 23.1508054,25.7319807 C22.5849023,26.6652842 21.8822942,27.4536487 21.0380707,28.0883309 C20.0872731,28.8223293 18.9616046,29.3256361 17.6675379,29.5945522 C16.369342,29.8639166 14.9642373,30 13.4506613,30 L0,30 L0,0 L14.4237781,0 C18.0594629,0.05941038 20.6369948,1.11747562 22.1590521,3.19538168 C23.0723535,4.46979038 23.5248751,5.99899114 23.5248751,7.77648246 C23.5248751,9.61058177 23.0668853,11.0781303 22.1446563,12.1931398 C21.6316496,12.8182939 20.8738014,13.3869521 19.8705538,13.9002354 C21.390156,14.4590293 22.5431654,15.3389755 23.3137356,16.5506109 Z M6.88792595,11.8274857 L13.2078285,11.8274857 C14.5065823,11.8274857 15.5564771,11.5795314 16.3651014,11.0838471 C17.1731678,10.5889474 17.576364,9.70922542 17.576364,8.44613833 C17.576364,7.05066697 17.0424889,6.12442551 15.972172,5.67862347 C15.0521749,5.36890483 13.8750607,5.20939357 12.446744,5.20939357 L6.88792595,5.20939357 L6.88792595,11.8274857 Z M18.1848967,20.516534 C18.1848967,18.9581885 17.5508085,17.880843 16.2851987,17.3027687 C15.5774571,16.9742181 14.5788964,16.8062997 13.298556,16.7943056 L6.88792595,16.7943056 L6.88792595,24.7891492 L13.1993472,24.7891492 C14.4959806,24.7891492 15.4995631,24.6186526 16.2238209,24.262975 C17.52994,23.6090124 18.1848967,22.364421 18.1848967,20.516534 Z M47.8098303,15.6360274 C47.9551283,16.6175317 48.0208583,18.0415873 47.9941868,19.9029257 L32.4178457,19.9029257 C32.5037746,22.062549 33.2459993,23.5728057 34.6536708,24.4370586 C35.5025813,24.9790382 36.5318308,25.2436947 37.7370672,25.2436947 C39.007922,25.2436947 40.0437557,24.920973 40.8411089,24.2575944 C41.275552,23.9059522 41.6587725,23.4095953 41.9901009,22.7833203 L47.6993503,22.7833203 C47.5498117,24.0588499 46.8623806,25.352539 45.6270133,26.6671898 C43.713031,28.7567537 41.0287017,29.8045062 37.5812793,29.8045062 C34.7333503,29.8045062 32.2234455,28.9208609 30.0448692,27.1599596 C27.8735465,25.3928932 26.7830308,22.527071 26.7830308,18.5516198 C26.7830308,14.8236745 27.7620622,11.9702948 29.7267091,9.9841946 C31.6986097,7.99439525 34.243444,7.00403542 37.3802949,7.00403542 C39.2395952,7.00403542 40.915655,7.3378545 42.4109293,8.0089676 C43.9015165,8.68075328 45.1334244,9.73803385 46.1036397,11.1911221 C46.9816767,12.4707992 47.5463523,13.950454 47.8098303,15.6360274 Z M42.1901925,16.1958301 C42.0855155,14.7024997 41.5891366,13.5722453 40.6953646,12.7997982 C39.8089578,12.0252214 38.7015911,11.6363636 37.3802949,11.6363636 C35.9422694,11.6363636 34.8318895,12.0520121 34.0429061,12.8689609 C33.248566,13.6842282 32.7543075,14.7926241 32.5517609,16.1959422 L42.1901925,16.1959422 L42.1901925,16.1958301 Z" id="Behance"></path>
                </g>
            </g>
        </g>
    </g>
</svg>