<?xml version="1.0" encoding="UTF-8"?>
<svg width="44px" height="46px" viewBox="0 0 44 46" version="1.1" xmlns="http://www.w3.org/2000/svg" xmlns:xlink="http://www.w3.org/1999/xlink">
    <!-- Generator: Sketch 57.1 (83088) - https://sketch.com -->
    <title>icon / github</title>
    <desc>Created with Sketch.</desc>
    <defs>
        <path d="M32.159199,32.6369616 C32.5675025,33.8336516 32.7716543,35.22979 32.7716543,36.42648 L32.7716543,44.0055167 C32.7716543,45.2022067 31.9550473,46 30.7301369,46 C29.5052264,46 28.6886195,45.2022067 28.6886195,44.0055167 L28.6886195,36.2270316 C28.8927712,34.631445 28.280316,33.4347549 27.2595573,32.4375133 C26.647102,31.8391683 26.4429503,31.0413749 26.8512538,30.4430299 C27.0554055,29.6452366 27.8720125,29.2463399 28.4844677,29.0468916 C34.4048682,28.4485466 39.9169652,26.4540632 39.9169652,17.0799915 C39.9169652,14.8860599 39.1003582,12.6921282 37.4671443,10.8970932 C36.8546891,10.2987482 36.8546891,9.50095484 37.0588408,8.90260984 C37.671296,7.30702317 37.671296,5.71143649 37.2629926,4.11584982 C36.2422339,4.31529815 34.6090199,4.91364316 31.9550473,6.70867816 C31.5467438,7.10757483 30.9342886,7.10757483 30.3218334,6.9081265 C26.0346468,5.71143649 21.3391568,5.71143649 17.0519702,6.9081265 C16.439515,7.10757483 15.8270598,7.10757483 15.2146046,6.70867816 C12.7647837,4.91364316 10.927418,4.31529815 9.90665932,4.11584982 C9.49835584,5.71143649 9.49835584,7.30702317 10.1108111,8.90260984 C10.3149628,9.70040318 10.3149628,10.4981965 9.70250758,10.8970932 C8.06929365,12.6921282 7.25268669,14.8860599 7.25268669,17.0799915 C7.25268669,26.4540632 12.7647837,28.4485466 18.6851842,29.0468916 C19.5017911,29.0468916 20.1142463,29.6452366 20.3183981,30.4430299 C20.5225498,31.2408233 20.3183981,32.0386166 19.9100946,32.4375133 C18.8893359,33.4347549 18.4810324,34.631445 18.4810324,36.0275833 L18.4810324,37.8226183 C18.4810324,37.8226183 18.4810324,38.0220666 18.4810324,38.0220666 L18.4810324,43.8060683 C18.4810324,45.0027583 17.6644255,45.8005517 16.439515,45.8005517 C15.2146046,45.8005517 14.3979976,45.0027583 14.3979976,43.8060683 L14.3979976,40.4154466 C8.27344539,41.4126883 5.61947277,38.0220666 3.7821071,35.828135 C2.96550014,34.8308933 2.35304492,34.0330999 1.53643795,33.8336516 C0.515679251,33.6342033 -0.300927712,32.4375133 0.10737577,31.4402716 C0.31152751,30.4430299 1.53643795,29.6452366 2.55719666,30.0441333 C4.59871406,30.6424783 5.82362451,32.0386166 7.04853495,33.4347549 C8.68174888,35.6286866 10.1108111,37.2242733 14.3979976,36.42648 L14.3979976,36.2270316 C14.3979976,35.0303416 14.6021494,33.6342033 15.0104528,32.6369616 C9.2942041,31.4402716 3.16965188,27.8502016 3.16965188,17.2794399 C3.16965188,14.2877149 4.19041058,11.4954382 6.02777625,9.30150651 C5.21116928,6.50922983 5.41532103,3.91640149 6.64023147,1.32357314 C6.84438321,0.725228139 7.25268669,0.32633147 7.86514191,0.126883136 C8.68174888,-0.0725651981 11.3357215,-0.471461866 16.8478185,2.91915981 C21.3391568,1.92191814 26.0346468,1.92191814 30.3218334,2.91915981 C35.6297786,-0.471461866 38.487903,-0.0725651981 39.30451,0.126883136 C39.9169652,0.32633147 40.3252687,0.725228139 40.5294204,1.32357314 C41.5501791,3.91640149 41.7543309,6.50922983 41.1418756,9.10205817 C42.9792413,11.2959899 44,14.0882665 44,17.0799915 C44,28.4485466 37.0588408,31.6397199 32.159199,32.6369616 Z" id="path-1"></path>
    </defs>
    <g id="Page-1" stroke="none" stroke-width="1" fill="none" fill-rule="evenodd" opacity="0.35">
        <g id="Artboard" transform="translate(-424.000000, -957.000000)">
            <g id="icon-/-github" transform="translate(424.000000, 957.000000)">
                <mask id="mask-2" fill="white">
                    <use xlink:href="#path-1"></use>
                </mask>
                <use id="Mask" fill="#000000" fill-rule="nonzero" xlink:href="#path-1"></use>
                <g id="color-/-black" mask="url(#mask-2)" fill="#000000">
                    <g transform="translate(-2.000000, -2.000000)" id="Shape">
                        <rect x="0" y="0" width="48" height="48"></rect>
                    </g>
                </g>
            </g>
        </g>
    </g>
</svg>